<svg width="1600" height="1000" viewBox="0 0 1600 1000" fill="none" xmlns="http://www.w3.org/2000/svg">
  <defs>
    <linearGradient id="pageBg" x1="0" y1="0" x2="1600" y2="1000" gradientUnits="userSpaceOnUse">
      <stop stop-color="#F7F8FA"/>
      <stop offset="0.55" stop-color="#F2F4F7"/>
      <stop offset="1" stop-color="#EDF1F4"/>
    </linearGradient>
    <linearGradient id="brandBlue" x1="85" y1="40" x2="120" y2="86" gradientUnits="userSpaceOnUse">
      <stop stop-color="#1D74D1"/>
      <stop offset="1" stop-color="#0E5DAE"/>
    </linearGradient>
    <linearGradient id="brandTeal" x1="108" y1="20" x2="146" y2="78" gradientUnits="userSpaceOnUse">
      <stop stop-color="#34C4C3"/>
      <stop offset="1" stop-color="#1BA7A9"/>
    </linearGradient>
    <linearGradient id="buttonBlue" x1="0" y1="0" x2="220" y2="0" gradientUnits="userSpaceOnUse">
      <stop stop-color="#2480D8"/>
      <stop offset="1" stop-color="#176BC1"/>
    </linearGradient>
    <filter id="panelShadow" x="28" y="96" width="1544" height="842" filterUnits="userSpaceOnUse" color-interpolation-filters="sRGB">
      <feOffset dy="10"/>
      <feGaussianBlur stdDeviation="14"/>
      <feColorMatrix type="matrix" values="0 0 0 0 0.152941 0 0 0 0 0.188235 0 0 0 0 0.243137 0 0 0 0.08 0"/>
    </filter>
  </defs>

  <rect width="1600" height="1000" rx="28" fill="url(#pageBg)"/>

  <rect x="0" y="0" width="1600" height="70" fill="#FDFDFE"/>
  <path d="M44 29C44 17.9543 52.9543 9 64 9H98V43C98 54.0457 89.0457 63 78 63H64C52.9543 63 44 54.0457 44 43V29Z" fill="url(#brandBlue)"/>
  <path d="M64 11H98V43C98 54.0457 89.0457 63 78 63V32C78 20.9543 69.0457 12 58 12H64V11Z" fill="#E8F7FF"/>
  <path d="M98 9H122C133.046 9 142 17.9543 142 29V43C142 54.0457 133.046 63 122 63H98V9Z" fill="url(#brandTeal)"/>
  <path d="M111 18L128 42H94L111 18Z" fill="#E6FBFB"/>
  <text x="156" y="40" fill="#16486C" font-family="Arial, sans-serif" font-size="32" font-weight="700">UPWARD</text>
  <text x="156" y="62" fill="#16486C" font-family="Arial, sans-serif" font-size="18" font-weight="700">PHYSICAL THERAPY</text>

  <g fill="#252A31" font-family="Arial, sans-serif" font-size="18" font-weight="500">
    <text x="966" y="43">Dashboard</text>
    <text x="1094" y="43">Recruiter</text>
    <text x="1217" y="43">CFO</text>
    <text x="1293" y="43">Settings</text>
  </g>
  <path d="M1409 22V50" stroke="#D8DEE5" stroke-width="2"/>
  <g stroke="#5A646E" stroke-width="2.2" stroke-linecap="round" stroke-linejoin="round" fill="none">
    <path d="M1450 27V36"/>
    <path d="M1445 31H1455"/>
    <path d="M1444 45C1448 42 1452 42 1456 45"/>
    <circle cx="1496" cy="35" r="10"/>
    <path d="M1496 27V35L1502 39"/>
    <circle cx="1543" cy="35" r="10"/>
    <path d="M1538 44C1541 39 1545 39 1548 44"/>
  </g>
  <path d="M0 70H1600" stroke="#D8DEE5" stroke-width="1.5"/>

  <text x="60" y="108" fill="#181D24" font-family="Arial, sans-serif" font-size="25" font-weight="600">Upward PT Automation Dashboard</text>
  <circle cx="1135" cy="100" r="7" fill="#2BB24C"/>
  <text x="1152" y="106" fill="#272C33" font-family="Arial, sans-serif" font-size="18">AI Active</text>
  <circle cx="1274" cy="100" r="7" fill="#2BB24C"/>
  <text x="1291" y="106" fill="#272C33" font-family="Arial, sans-serif" font-size="18">System Healthy</text>
  <text x="1452" y="106" fill="#272C33" font-family="Arial, sans-serif" font-size="18">Last Sync: 10:45 AM</text>

  <g filter="url(#panelShadow)">
    <rect x="58" y="138" width="734" height="728" rx="18" fill="#FFFFFF"/>
    <rect x="812" y="138" width="730" height="728" rx="18" fill="#FFFFFF"/>
  </g>
  <rect x="58" y="138" width="734" height="728" rx="18" stroke="#D7DDE4"/>
  <rect x="812" y="138" width="730" height="728" rx="18" stroke="#D7DDE4"/>

  <text x="82" y="188" fill="#101418" font-family="Arial, sans-serif" font-size="30" font-weight="700">RECRUITER BOT</text>
  <rect x="82" y="214" width="664" height="152" rx="14" fill="#F3F5F8" stroke="#D7DDE4"/>
  <text x="100" y="252" fill="#171C22" font-family="Arial, sans-serif" font-size="22" font-weight="700">DAILY DIGEST</text>
  <text x="100" y="288" fill="#1F252D" font-family="Arial, sans-serif" font-size="18">Today: 3 new applicants, 2 interviews scheduled, 1 offer letter drafted.</text>
  <rect x="100" y="308" width="215" height="40" rx="10" fill="url(#buttonBlue)"/>
  <rect x="330" y="308" width="206" height="40" rx="10" fill="url(#buttonBlue)"/>
  <rect x="551" y="308" width="171" height="40" rx="10" fill="url(#buttonBlue)"/>
  <g fill="#F4F8FD" font-family="Arial, sans-serif" font-size="15" font-weight="700">
    <text x="114" y="333">DRAFT: Interview Invite</text>
    <text x="349" y="333">DRAFT: Offer Letter</text>
    <text x="572" y="333">DRAFT: Rejection</text>
  </g>

  <g fill="#171B21" font-family="Arial, sans-serif" font-size="18" font-weight="700">
    <text x="82" y="415">NEW (12)</text>
    <text x="317" y="415">SCREENED (5)</text>
    <text x="548" y="415">SHORTLIST (3)</text>
  </g>

  <g fill="#FFFFFF" stroke="#D7DDE4">
    <rect x="82" y="433" width="204" height="120" rx="12"/>
    <rect x="307" y="433" width="204" height="120" rx="12"/>
    <rect x="532" y="433" width="204" height="120" rx="12"/>
    <rect x="82" y="567" width="204" height="120" rx="12"/>
    <rect x="307" y="567" width="204" height="120" rx="12"/>
    <rect x="532" y="567" width="204" height="120" rx="12"/>
    <rect x="82" y="701" width="204" height="120" rx="12"/>
    <rect x="307" y="701" width="204" height="120" rx="12"/>
    <rect x="532" y="701" width="204" height="120" rx="12"/>
  </g>

  <g>
    <circle cx="118" cy="468" r="28" fill="#D7E3F2"/>
    <circle cx="343" cy="468" r="28" fill="#D7E3F2"/>
    <circle cx="568" cy="468" r="28" fill="#D7E3F2"/>
    <circle cx="118" cy="602" r="28" fill="#D7E3F2"/>
    <circle cx="343" cy="602" r="28" fill="#D7E3F2"/>
    <circle cx="568" cy="602" r="28" fill="#D7E3F2"/>
    <circle cx="118" cy="736" r="28" fill="#D7E3F2"/>
    <circle cx="343" cy="736" r="28" fill="#D7E3F2"/>
    <circle cx="568" cy="736" r="28" fill="#D7E3F2"/>
    <circle cx="118" cy="458" r="10" fill="#F2C39E"/>
    <rect x="103" y="470" width="30" height="18" rx="9" fill="#5A7EB0"/>
    <circle cx="343" cy="458" r="10" fill="#C68D5F"/>
    <rect x="328" y="470" width="30" height="18" rx="9" fill="#3D6A9B"/>
    <circle cx="568" cy="458" r="10" fill="#A86E41"/>
    <rect x="553" y="470" width="30" height="18" rx="9" fill="#467A66"/>
    <circle cx="118" cy="592" r="10" fill="#C68D5F"/>
    <rect x="103" y="604" width="30" height="18" rx="9" fill="#3D6A9B"/>
    <circle cx="343" cy="592" r="10" fill="#A86E41"/>
    <rect x="328" y="604" width="30" height="18" rx="9" fill="#467A66"/>
    <circle cx="568" cy="592" r="10" fill="#A86E41"/>
    <rect x="553" y="604" width="30" height="18" rx="9" fill="#467A66"/>
    <circle cx="118" cy="726" r="10" fill="#7D5A3A"/>
    <rect x="103" y="738" width="30" height="18" rx="9" fill="#467A66"/>
    <circle cx="343" cy="726" r="10" fill="#E4BF9B"/>
    <rect x="328" y="738" width="30" height="18" rx="9" fill="#7C5DA6"/>
    <circle cx="568" cy="726" r="10" fill="#C68D5F"/>
    <rect x="553" y="738" width="30" height="18" rx="9" fill="#3D6A9B"/>
  </g>

  <g fill="#171C22" font-family="Arial, sans-serif">
    <text x="154" y="458" font-size="17" font-weight="700">Sarah Chen, PT</text>
    <text x="154" y="481" font-size="13">Licensed: CA, 5 YOE</text>
    <text x="154" y="502" font-size="13">San Francisco, CA</text>
    <text x="154" y="523" font-size="13">Orthopedics</text>

    <text x="379" y="458" font-size="17" font-weight="700">Jaran Hilmer, PT</text>
    <text x="379" y="481" font-size="13">Licensed: CA, 5 YOE</text>
    <text x="379" y="502" font-size="13">San Francisco, CA</text>
    <text x="379" y="523" font-size="13">Orthopedics</text>

    <text x="604" y="458" font-size="17" font-weight="700">Alrah Rain, PT</text>
    <text x="604" y="481" font-size="13">Licensed: CA, 5 YOE</text>
    <text x="604" y="502" font-size="13">San Francisco, CA</text>
    <text x="604" y="523" font-size="13">Orthopedics</text>

    <text x="154" y="592" font-size="17" font-weight="700">Jana Hone, PT</text>
    <text x="154" y="615" font-size="13">Licensed: CA, 5 YOE</text>
    <text x="154" y="636" font-size="13">San Francisco, CA</text>
    <text x="154" y="657" font-size="13">Orthopedics</text>

    <text x="379" y="592" font-size="17" font-weight="700">Jona Shara, PT</text>
    <text x="379" y="615" font-size="13">Licensed: CA, 5 YOE</text>
    <text x="379" y="636" font-size="13">San Francisco, CA</text>
    <text x="379" y="657" font-size="13">Orthopedics</text>

    <text x="604" y="592" font-size="17" font-weight="700">Matt Hitmen, PT</text>
    <text x="604" y="615" font-size="13">Licensed: CA, 5 YOE</text>
    <text x="604" y="636" font-size="13">San Francisco, CA</text>
    <text x="604" y="657" font-size="13">Orthopedics</text>

    <text x="154" y="726" font-size="17" font-weight="700">Sarah Chen, PT</text>
    <text x="154" y="749" font-size="13">Licensed: CA, 5 YOE</text>
    <text x="154" y="770" font-size="13">San Francisco, CA</text>
    <text x="154" y="791" font-size="13">Orthopedics</text>

    <text x="379" y="726" font-size="17" font-weight="700">Sarah Chen, PT</text>
    <text x="379" y="749" font-size="13">Licensed: CA, 5 YOE</text>
    <text x="379" y="770" font-size="13">San Francisco, CA</text>
    <text x="379" y="791" font-size="13">Orthopedics</text>

    <text x="604" y="726" font-size="17" font-weight="700">Jana Hone, PT</text>
    <text x="604" y="749" font-size="13">Licensed: CA, 5 YOE</text>
    <text x="604" y="770" font-size="13">San Francisco, CA</text>
    <text x="604" y="791" font-size="13">Orthopedics</text>
  </g>

  <g fill="#D8F1EC" stroke="#B7DFD9">
    <rect x="100" y="520" width="92" height="26" rx="13"/>
    <rect x="196" y="520" width="92" height="26" rx="13"/>
    <rect x="325" y="520" width="92" height="26" rx="13"/>
    <rect x="421" y="520" width="92" height="26" rx="13"/>
    <rect x="550" y="520" width="92" height="26" rx="13"/>
    <rect x="646" y="520" width="76" height="26" rx="13"/>
    <rect x="100" y="654" width="92" height="26" rx="13"/>
    <rect x="325" y="654" width="52" height="26" rx="13"/>
    <rect x="383" y="654" width="84" height="26" rx="13"/>
    <rect x="550" y="654" width="92" height="26" rx="13"/>
    <rect x="646" y="654" width="92" height="26" rx="13"/>
    <rect x="100" y="788" width="92" height="26" rx="13"/>
    <rect x="325" y="788" width="92" height="26" rx="13"/>
    <rect x="421" y="788" width="92" height="26" rx="13"/>
    <rect x="550" y="788" width="92" height="26" rx="13"/>
  </g>
  <g fill="#145A58" font-family="Arial, sans-serif" font-size="12" font-weight="600">
    <text x="109" y="537">Orthopedics</text>
    <text x="205" y="537">Oathopedics</text>
    <text x="334" y="537">Orthopedics</text>
    <text x="433" y="537">Detecting</text>
    <text x="559" y="537">Orthopedics</text>
    <text x="666" y="537">Panats</text>
    <text x="109" y="671">Orthopedics</text>
    <text x="340" y="671">Big</text>
    <text x="395" y="671">Occurney</text>
    <text x="559" y="671">Orthopedics</text>
    <text x="655" y="671">Orthopedics</text>
    <text x="109" y="805">Orthopedics</text>
    <text x="334" y="805">Orthopedics</text>
    <text x="430" y="805">Orthopedics</text>
    <text x="559" y="805">Orthopedics</text>
  </g>

  <text x="836" y="188" fill="#101418" font-family="Arial, sans-serif" font-size="30" font-weight="700">CFO BOT</text>

  <g fill="#F9FAFC" stroke="#D7DDE4">
    <rect x="836" y="214" width="214" height="96" rx="12"/>
    <rect x="1064" y="214" width="214" height="96" rx="12"/>
    <rect x="1292" y="214" width="214" height="96" rx="12"/>
  </g>
  <g fill="#171C22" font-family="Arial, sans-serif">
    <text x="852" y="248" font-size="17" font-weight="700">PAYROLL %</text>
    <text x="852" y="274" font-size="19" font-weight="700">45%</text>
    <text x="908" y="274" font-size="17">- On Track</text>
    <text x="1080" y="248" font-size="17" font-weight="700">CASH FLOW</text>
    <text x="1080" y="274" font-size="19" font-weight="700">$150k</text>
    <text x="1155" y="274" font-size="17">- Healthy</text>
    <text x="1308" y="248" font-size="17" font-weight="700">NET INCOME</text>
    <text x="1308" y="274" font-size="19" font-weight="700">$25k</text>
    <text x="1375" y="274" font-size="17">- Month to Date</text>
  </g>

  <g stroke="#2D7FD2" stroke-width="3.5" stroke-linecap="round">
    <path d="M962 285C978 278 987 292 1000 286C1013 280 1020 288 1033 281"/>
    <path d="M1190 285C1204 288 1218 275 1231 280C1244 285 1254 267 1264 270"/>
    <path d="M1420 285C1432 278 1442 281 1453 276C1463 271 1474 264 1487 260"/>
  </g>
  <g fill="#2D7FD2">
    <circle cx="1000" cy="286" r="5"/>
    <circle cx="1231" cy="280" r="5"/>
    <circle cx="1487" cy="260" r="5"/>
  </g>

  <rect x="836" y="326" width="670" height="52" rx="12" fill="#F7F9FB" stroke="#D7DDE4"/>
  <text x="856" y="359" fill="#171C22" font-family="Arial, sans-serif" font-size="17" font-weight="700">HIRING READINESS</text>
  <text x="1036" y="359" fill="#2E9854" font-family="Arial, sans-serif" font-size="17" font-weight="700">High</text>
  <text x="1092" y="359" fill="#171C22" font-family="Arial, sans-serif" font-size="17">- 2 Open Roles</text>
  <circle cx="1478" cy="352" r="14" fill="#2E9854"/>
  <path d="M1471 352L1476 357L1485 346" stroke="#FFFFFF" stroke-width="3" stroke-linecap="round" stroke-linejoin="round"/>

  <rect x="836" y="392" width="670" height="166" rx="14" fill="#F7F9FB" stroke="#D7DDE4"/>
  <text x="856" y="428" fill="#171C22" font-family="Arial, sans-serif" font-size="17" font-weight="700">CAN I HIRE ANOTHER PT?</text>
  <text x="856" y="456" fill="#171C22" font-family="Arial, sans-serif" font-size="16">Salary Range</text>
  <text x="1076" y="456" fill="#171C22" font-family="Arial, sans-serif" font-size="16">Expected Caseload</text>
  <rect x="856" y="472" width="204" height="40" rx="10" fill="#FFFFFF" stroke="#C9D3DE"/>
  <rect x="1076" y="472" width="214" height="40" rx="10" fill="#FFFFFF" stroke="#C9D3DE"/>
  <rect x="1306" y="472" width="162" height="40" rx="10" fill="url(#buttonBlue)"/>
  <text x="876" y="498" fill="#3E4650" font-family="Arial, sans-serif" font-size="16">$200 - $3000</text>
  <text x="1094" y="498" fill="#3E4650" font-family="Arial, sans-serif" font-size="16">$100,000</text>
  <text x="1347" y="498" fill="#F4F8FD" font-family="Arial, sans-serif" font-size="15" font-weight="700">RUN SCENARIO</text>
  <text x="856" y="536" fill="#2E9854" font-family="Arial, sans-serif" font-size="16" font-weight="700">YES: Projected break-even in 3 months.</text>

  <rect x="836" y="580" width="670" height="186" rx="14" fill="#F7F9FB" stroke="#D7DDE4"/>
  <text x="856" y="618" fill="#171C22" font-family="Arial, sans-serif" font-size="17" font-weight="700">MONTHLY SUMMARY</text>
  <path d="M856 646H1486" stroke="#D7DDE4" stroke-width="1.5"/>
  <g fill="#171C22" font-family="Arial, sans-serif">
    <text x="856" y="670" font-size="14" font-weight="700">Category</text>
    <text x="1072" y="670" font-size="14" font-weight="700">Actual</text>
    <text x="1242" y="670" font-size="14" font-weight="700">Budget</text>
    <text x="1430" y="670" font-size="14" font-weight="700">Variance</text>
  </g>
  <path d="M856 690H1486" stroke="#D7DDE4" stroke-width="1.5"/>
  <path d="M856 726H1486" stroke="#D7DDE4" stroke-width="1.5"/>
  <g fill="#171C22" font-family="Arial, sans-serif" font-size="16">
    <text x="856" y="713">Revenue</text>
    <text x="856" y="749">Expenses</text>
    <text x="856" y="785">Profit</text>
    <text x="1072" y="713">$120k</text>
    <text x="1072" y="749">$95k</text>
    <text x="1072" y="785" fill="#2E9854">$25k</text>
    <text x="1242" y="713">$115k</text>
    <text x="1242" y="749">$90k</text>
    <text x="1242" y="785" fill="#2E9854">$25k</text>
    <text x="1430" y="713" fill="#2E9854">+$5k</text>
    <text x="1430" y="749" fill="#2E9854">+$5k</text>
    <text x="1430" y="785">$0</text>
  </g>

  <rect x="836" y="778" width="670" height="64" rx="12" fill="#F7F9FB" stroke="#D7DDE4"/>
  <text x="856" y="816" fill="#171C22" font-family="Arial, sans-serif" font-size="16">October Summary: Revenue up 4%, expenses controlled. Cash reserves sufficient for expansion.</text>
</svg>
